<svg xmlns="http://www.w3.org/2000/svg" version="1.1" xmlns:xlink="http://www.w3.org/1999/xlink" viewBox="0 0 200 200"><rect width="200" height="200" fill="url('#gradient')"></rect><defs><linearGradient id="gradient" gradientTransform="rotate(45 0.5 0.5)"><stop offset="0%" stop-color="#28764d"></stop><stop offset="100%" stop-color="#43869f"></stop></linearGradient></defs><g><g fill="#110705" transform="matrix(2.5128834355828222,0,0,2.5128834355828222,9.701918636518386,113.30368665683488)" stroke="#756a6b" stroke-width="0.2"><path d="M1.46-13.19L4.76-13.19L4.76-10.57L6.49-10.57L6.49-8.28L4.76-8.28L4.76-3.45Q4.76-2.85 4.97-2.62Q5.19-2.38 5.82-2.38L5.82-2.38Q6.31-2.38 6.64-2.44L6.64-2.44L6.64-0.09Q5.75 0.20 4.79 0.20L4.79 0.20Q3.09 0.20 2.28-0.61Q1.46-1.41 1.46-3.04L1.46-3.04L1.46-8.28L0.12-8.28L0.12-10.57L1.46-10.57L1.46-13.19ZM14.24-10.64L14.18-7.59L13.10-7.67Q11.54-7.67 11.10-6.69L11.10-6.69L11.10 0L7.81 0L7.81-10.57L10.90-10.57L11.01-9.21Q11.84-10.76 13.32-10.76L13.32-10.76Q13.85-10.76 14.24-10.64L14.24-10.64ZM31.59-5.37L31.59-5.37Q31.49-2.82 30.32-1.31Q29.15 0.21 27.20 0.21L27.20 0.21Q26.40 0.21 25.78-0.14Q25.17-0.49 24.82-1.12L24.82-1.12Q23.87 0.17 22.26 0.17L22.26 0.17Q21.32 0.17 20.62-0.39Q19.91-0.94 19.58-1.95Q19.26-2.97 19.38-4.26L19.38-4.26Q19.68-6.70 20.96-8.18Q22.24-9.67 24.09-9.67L24.09-9.67Q25.53-9.67 26.56-9.00L26.56-9.00L27.18-8.59L26.68-2.86Q26.51-1.50 27.62-1.50L27.62-1.50Q28.45-1.50 29.01-2.56Q29.57-3.62 29.63-5.27L29.63-5.27Q29.79-8.54 28.28-10.31Q26.76-12.09 23.83-12.09L23.83-12.09Q21.96-12.09 20.51-11.14Q19.06-10.19 18.22-8.44Q17.37-6.70 17.27-4.47L17.27-4.47Q17.11-1.05 18.63 0.76Q20.16 2.57 23.20 2.57L23.20 2.57Q24.02 2.57 24.94 2.38Q25.86 2.19 26.44 1.93L26.44 1.93L26.80 3.55Q26.20 3.95 25.19 4.18Q24.18 4.42 23.16 4.42L23.16 4.42Q20.50 4.42 18.66 3.40Q16.82 2.38 15.92 0.38Q15.02-1.62 15.12-4.47L15.12-4.47Q15.23-7.17 16.36-9.30Q17.49-11.44 19.45-12.60Q21.41-13.77 23.87-13.77Q26.33-13.77 28.12-12.75Q29.90-11.73 30.80-9.81Q31.70-7.90 31.59-5.37ZM21.83-4.26L21.83-4.26Q21.72-2.99 22.03-2.34Q22.33-1.69 23.02-1.69L23.02-1.69Q23.48-1.69 23.86-2.10Q24.25-2.51 24.50-3.27L24.50-3.27L24.89-7.72Q24.60-7.80 24.29-7.80L24.29-7.80Q23.19-7.80 22.60-6.95Q22.01-6.09 21.83-4.26ZM37.74-2.34L37.74-2.34Q38.44-2.34 38.82-2.72Q39.20-3.10 39.19-3.77L39.19-3.77L42.28-3.77Q42.28-2.03 41.03-0.92Q39.79 0.20 37.82 0.20L37.82 0.20Q35.52 0.20 34.19-1.25Q32.86-2.70 32.86-5.25L32.86-5.25L32.86-5.39Q32.86-6.99 33.45-8.22Q34.04-9.44 35.16-10.10Q36.27-10.76 37.79-10.76L37.79-10.76Q39.85-10.76 41.06-9.62Q42.28-8.48 42.28-6.52L42.28-6.52L39.19-6.52Q39.19-7.34 38.79-7.78Q38.39-8.22 37.71-8.22L37.71-8.22Q36.44-8.22 36.22-6.59L36.22-6.59Q36.15-6.07 36.15-5.17L36.15-5.17Q36.15-3.57 36.53-2.96Q36.91-2.34 37.74-2.34ZM50.21 0L47.91-3.94L46.98-3.01L46.98 0L43.69 0L43.69-15.01L46.98-15.01L46.98-7.04L47.31-7.48L49.79-10.57L53.74-10.57L50.04-6.22L53.98 0L50.21 0ZM59.52 0.20L59.52 0.20Q57.09 0.20 55.59-1.25Q54.08-2.71 54.08-5.03L54.08-5.03L54.08-5.30Q54.08-6.92 54.68-8.16Q55.28-9.40 56.44-10.08Q57.59-10.76 59.17-10.76L59.17-10.76Q61.40-10.76 62.69-9.38Q63.97-8.00 63.97-5.53L63.97-5.53L63.97-4.25L57.43-4.25Q57.61-3.36 58.20-2.85Q58.80-2.34 59.75-2.34L59.75-2.34Q61.31-2.34 62.19-3.44L62.19-3.44L63.69-1.66Q63.08-0.81 61.95-0.31Q60.82 0.20 59.52 0.20ZM59.15-8.22L59.15-8.22Q57.71-8.22 57.43-6.31L57.43-6.31L60.75-6.31L60.75-6.56Q60.77-7.35 60.35-7.79Q59.93-8.22 59.15-8.22ZM71.75-10.64L71.69-7.59L70.61-7.67Q69.05-7.67 68.61-6.69L68.61-6.69L68.61 0L65.32 0L65.32-10.57L68.41-10.57L68.52-9.21Q69.35-10.76 70.83-10.76L70.83-10.76Q71.36-10.76 71.75-10.64L71.75-10.64Z"></path></g></g></svg>