<?xml version="1.0" encoding="UTF-8"?>
<svg xmlns="http://www.w3.org/2000/svg" xmlns:xlink="http://www.w3.org/1999/xlink" width="192px" height="192px" viewBox="0 0 192 192" version="1.1">
<defs>
<linearGradient id="linear0" gradientUnits="userSpaceOnUse" x1="0" y1="0" x2="1" y2="0" gradientTransform="matrix(-49.693257,-185.457759,185.457759,-49.693257,28.117749,213.575508)">
<stop offset="0" style="stop-color:rgb(27.843137%,12.54902%,15.294118%);stop-opacity:1;"/>
<stop offset="1" style="stop-color:rgb(21.176471%,41.960784%,56.862745%);stop-opacity:1;"/>
</linearGradient>
</defs>
<g id="surface1">
<rect x="0" y="0" width="192" height="192" style="fill:url(#linear0);stroke:none;"/>
<path style="fill-rule:nonzero;fill:rgb(77.254903%,56.078434%,15.294118%);fill-opacity:1;stroke-width:0.2;stroke-linecap:butt;stroke-linejoin:miter;stroke:rgb(75.294119%,41.568628%,24.313726%);stroke-opacity:1;stroke-miterlimit:4;" d="M 1.460269 -13.189891 L 4.759883 -13.189891 L 4.759883 -10.569753 L 6.490347 -10.569753 L 6.490347 -8.279926 L 4.759883 -8.279926 L 4.759883 -3.450269 C 4.759883 -3.050125 4.829716 -2.773586 4.970081 -2.619954 C 5.11673 -2.460036 5.400253 -2.379728 5.819949 -2.379728 C 6.146768 -2.379728 6.419816 -2.399979 6.63979 -2.439784 L 6.63979 -0.0899005 C 6.046907 0.103537 5.430281 0.199907 4.789911 0.199907 C 3.65652 0.199907 2.81992 -0.0703472 2.28011 -0.610157 C 1.733317 -1.143682 1.460269 -1.953047 1.460269 -3.040349 L 1.460269 -8.279926 L 0.120172 -8.279926 L 0.120172 -10.569753 L 1.460269 -10.569753 Z M 12.900327 0.199907 C 11.280199 0.199907 9.966639 -0.283338 8.960344 -1.249828 C 7.960334 -2.223302 7.460329 -3.483091 7.460329 -5.029894 L 7.460329 -5.300148 C 7.460329 -6.379767 7.660052 -7.332989 8.060195 -8.159813 C 8.460339 -8.986637 9.043445 -9.627006 9.810213 -10.080223 C 10.583265 -10.53344 11.496682 -10.759699 12.549765 -10.759699 C 14.036511 -10.759699 15.206914 -10.300197 16.060275 -9.379797 C 16.91992 -8.460095 17.350092 -7.176563 17.350092 -5.529899 L 17.350092 -4.249858 L 10.810222 -4.249858 C 10.930335 -3.656975 11.186623 -3.189792 11.579783 -2.849704 C 11.979927 -2.510316 12.496692 -2.339923 13.130078 -2.339923 C 14.169893 -2.339923 14.983448 -2.706547 15.570046 -3.439794 L 17.070061 -1.659748 C 16.663633 -1.093402 16.08332 -0.643677 15.32982 -0.309875 C 14.576321 0.0302124 13.766956 0.199907 12.900327 0.199907 Z M 12.530212 -8.21987 C 11.563023 -8.21987 10.989694 -7.582992 10.810222 -6.309934 L 14.130088 -6.309934 L 14.130088 -6.559937 C 14.143356 -7.086478 14.009975 -7.496399 13.729944 -7.789698 C 13.449913 -8.076712 13.04977 -8.21987 12.530212 -8.21987 Z M 27.920029 0.000184185 L 24.630192 0.000184185 C 24.510079 -0.213505 24.406726 -0.529849 24.320133 -0.950244 C 23.713284 -0.183477 22.866906 0.199907 21.780303 0.199907 C 20.780294 0.199907 19.933218 -0.103169 19.239775 -0.710018 C 18.540048 -1.309885 18.190184 -2.066875 18.190184 -2.980292 C 18.190184 -4.126952 18.613373 -4.99358 19.45975 -5.580178 C 20.306825 -6.166776 21.536586 -6.460075 23.14973 -6.460075 L 24.169992 -6.460075 L 24.169992 -7.009662 C 24.169992 -7.983135 23.750295 -8.469872 22.910203 -8.469872 C 22.130167 -8.469872 21.7398 -8.082997 21.7398 -7.309944 L 18.449963 -7.309944 C 18.449963 -8.336491 18.883627 -9.166806 19.750255 -9.800192 C 20.616884 -10.439864 21.726532 -10.759699 23.079897 -10.759699 C 24.426978 -10.759699 25.489837 -10.433579 26.269873 -9.779941 C 27.049909 -9.120018 27.450052 -8.216378 27.470304 -7.069718 L 27.470304 -2.390203 C 27.483572 -1.423014 27.633015 -0.683482 27.920029 -0.170209 Z M 22.570116 -2.149977 C 22.976544 -2.149977 23.316632 -2.23657 23.589679 -2.409756 C 23.856441 -2.589925 24.049879 -2.790346 24.169992 -3.010321 L 24.169992 -4.700281 L 23.209787 -4.700281 C 22.063127 -4.700281 21.489798 -4.183517 21.489798 -3.149987 C 21.489798 -2.856688 21.593151 -2.616462 21.799857 -2.430008 C 22.000278 -2.243553 22.256565 -2.149977 22.570116 -2.149977 Z M 22.570116 -2.149977 " transform="matrix(5.593694,0,0,5.593694,17.577794,132.334907)"/>
</g>
</svg>
