<?xml version="1.0" encoding="UTF-8"?>
<svg xmlns="http://www.w3.org/2000/svg" xmlns:xlink="http://www.w3.org/1999/xlink" width="512px" height="512px" viewBox="0 0 512 512" version="1.1">
<defs>
<linearGradient id="linear0" gradientUnits="userSpaceOnUse" x1="0" y1="0" x2="1" y2="0" gradientTransform="matrix(-132.515351,-494.554023,494.554023,-132.515351,74.980664,569.534687)">
<stop offset="0" style="stop-color:rgb(27.843137%,12.54902%,15.294118%);stop-opacity:1;"/>
<stop offset="1" style="stop-color:rgb(9.803922%,12.54902%,14.509804%);stop-opacity:1;"/>
</linearGradient>
</defs>
<g id="surface1">
<rect x="0" y="0" width="512" height="512" style="fill:url(#linear0);stroke:none;"/>
<path style="fill-rule:nonzero;fill:rgb(81.568629%,52.156866%,16.078432%);fill-opacity:1;stroke-width:0.2;stroke-linecap:butt;stroke-linejoin:miter;stroke:rgb(75.294119%,41.568628%,24.313726%);stroke-opacity:1;stroke-miterlimit:4;" d="M 1.459911 -13.190016 L 4.759827 -13.190016 L 4.759827 -10.570189 L 6.489736 -10.570189 L 6.489736 -8.280286 L 4.759827 -8.280286 L 4.759827 -3.45017 C 4.759827 -3.050078 4.829995 -2.773454 4.970331 -2.620299 C 5.116739 -2.459723 5.400109 -2.380109 5.819767 -2.380109 C 6.146993 -2.380109 6.420243 -2.399675 6.640192 -2.440157 L 6.640192 -0.0902063 C 6.046464 0.10343 5.429796 0.199911 4.790188 0.199911 C 3.656706 0.199911 2.820089 -0.0699655 2.280336 -0.609719 C 1.733161 -1.1434 1.459911 -1.953029 1.459911 -3.039957 L 1.459911 -8.280286 L 0.119974 -8.280286 L 0.119974 -10.570189 L 1.459911 -10.570189 Z M 14.239917 -10.639682 L 14.17987 -7.590077 L 13.099689 -7.66969 C 12.059989 -7.66969 11.393394 -7.34314 11.099903 -6.690038 L 11.099903 0.000202407 L 7.810107 0.000202407 L 7.810107 -10.570189 L 10.900194 -10.570189 L 11.010169 -9.210011 C 11.563416 -10.243638 12.333239 -10.759777 13.320313 -10.759777 C 13.673176 -10.759777 13.980161 -10.719971 14.239917 -10.639682 Z M 31.590283 -5.369667 C 31.523489 -3.670119 31.099783 -2.316688 30.319839 -1.310048 C 29.539896 -0.296662 28.500196 0.210031 27.200066 0.210031 C 26.666385 0.210031 26.193426 0.0933098 25.77984 -0.140133 C 25.373001 -0.373577 25.053198 -0.700127 24.819754 -1.119785 C 24.186894 -0.260229 23.333409 0.170225 22.259975 0.170225 C 21.633186 0.170225 21.086686 -0.0166649 20.6198 -0.389769 C 20.146841 -0.756801 19.80005 -1.276989 19.5801 -1.950331 C 19.366898 -2.629745 19.300103 -3.400243 19.379717 -4.2598 C 19.5801 -5.886481 20.10636 -7.193358 20.959844 -8.179757 C 21.813329 -9.173578 22.856402 -9.670151 24.089738 -9.670151 C 25.049824 -9.670151 25.873622 -9.446828 26.559784 -9.000182 L 27.179825 -8.58997 L 26.679879 -2.859815 C 26.566531 -1.953029 26.880262 -1.500311 27.619724 -1.500311 C 28.173646 -1.500311 28.636484 -1.853175 29.010263 -2.560252 C 29.383368 -3.266654 29.589823 -4.170066 29.630305 -5.269813 C 29.736906 -7.449741 29.286887 -9.129723 28.280247 -10.309758 C 27.26686 -11.496541 25.783214 -12.090269 23.829982 -12.090269 C 22.583152 -12.090269 21.476658 -11.773164 20.509825 -11.140303 C 19.543667 -10.506768 18.779916 -9.60673 18.219922 -8.440188 C 17.653181 -7.279719 17.336751 -5.956649 17.269957 -4.470303 C 17.163355 -2.189846 17.616748 -0.446443 18.630135 0.759905 C 19.650268 1.966928 21.173047 2.570102 23.19982 2.570102 C 23.746995 2.570102 24.326555 2.506681 24.939849 2.379839 C 25.553144 2.252997 26.05309 2.103216 26.439689 1.92982 L 26.799974 3.549754 C 26.399882 3.816932 25.863502 4.026761 25.19016 4.179916 C 24.516818 4.339818 23.840102 4.420106 23.160013 4.420106 C 21.386924 4.420106 19.88641 4.080062 18.659821 3.399973 C 17.433232 2.719884 16.5197 1.713244 15.919899 0.380054 C 15.320098 -0.953137 15.053595 -2.569697 15.119715 -4.470303 C 15.193256 -6.269706 15.606842 -7.880194 16.359798 -9.299745 C 17.113428 -10.726718 18.143007 -11.826465 19.449885 -12.600336 C 20.756762 -13.380279 22.230288 -13.770251 23.869789 -13.770251 C 25.509964 -13.770251 26.926816 -13.430206 28.11967 -12.750117 C 29.306453 -12.070028 30.199744 -11.089702 30.80022 -9.809812 C 31.40002 -8.536669 31.66315 -7.056396 31.590283 -5.369667 Z M 21.830196 -4.2598 C 21.756655 -3.413062 21.823449 -2.773454 22.029905 -2.340302 C 22.230288 -1.906476 22.560213 -1.6899 23.019677 -1.6899 C 23.326662 -1.6899 23.606659 -1.826862 23.859668 -2.100112 C 24.120099 -2.373362 24.333302 -2.763334 24.499951 -3.270027 L 24.889922 -7.720292 C 24.696961 -7.773593 24.496577 -7.799906 24.290122 -7.799906 C 23.556732 -7.799906 22.993365 -7.516535 22.600019 -6.949795 C 22.206674 -6.376982 21.950291 -5.480317 21.830196 -4.2598 Z M 37.740096 -2.340302 C 38.206983 -2.340302 38.566593 -2.46647 38.820277 -2.720154 C 39.073287 -2.973163 39.196755 -3.323328 39.190008 -3.769974 L 42.280095 -3.769974 C 42.280095 -2.610179 41.863136 -1.660213 41.029892 -0.920077 C 40.203395 -0.173193 39.133334 0.199911 37.81971 0.199911 C 36.286811 0.199911 35.076414 -0.283168 34.18987 -1.250001 C 33.303325 -2.216834 32.860053 -3.550024 32.860053 -5.250247 L 32.860053 -5.389908 C 32.860053 -6.456595 33.056388 -7.399814 33.449733 -8.220239 C 33.843078 -9.033242 34.413193 -9.66003 35.160076 -10.099929 C 35.900213 -10.539828 36.776637 -10.759777 37.790024 -10.759777 C 39.163021 -10.759777 40.253322 -10.379926 41.060253 -9.620224 C 41.873256 -8.859846 42.280095 -7.826894 42.280095 -6.520016 L 39.190008 -6.520016 C 39.190008 -7.066516 39.056419 -7.486849 38.789916 -7.779665 C 38.523413 -8.073156 38.163128 -8.220239 37.709735 -8.220239 C 36.862997 -8.220239 36.366425 -7.676437 36.220016 -6.590184 C 36.173463 -6.243393 36.149849 -5.769759 36.149849 -5.169958 C 36.149849 -4.103271 36.276691 -3.366508 36.5297 -2.959669 C 36.783384 -2.546758 37.186849 -2.340302 37.740096 -2.340302 Z M 50.209745 0.000202407 L 47.909721 -3.939996 L 46.979996 -3.010271 L 46.979996 0.000202407 L 43.690201 0.000202407 L 43.690201 -15.010334 L 46.979996 -15.010334 L 46.979996 -7.040203 L 47.30992 -7.480102 L 49.790086 -10.570189 L 53.73973 -10.570189 L 50.039722 -6.219778 L 53.979921 0.000202407 Z M 59.519812 0.199911 C 57.899878 0.199911 56.590302 -0.283168 55.589734 -1.250001 C 54.583095 -2.223581 54.079775 -3.48323 54.079775 -5.030297 L 54.079775 -5.300174 C 54.079775 -6.37968 54.280158 -7.333019 54.68025 -8.160191 C 55.079668 -8.986688 55.666649 -9.62697 56.439846 -10.079688 C 57.20697 -10.533081 58.116454 -10.759777 59.170322 -10.759777 C 60.656668 -10.759777 61.829956 -10.300313 62.690188 -9.380033 C 63.542998 -8.459754 63.970077 -7.176491 63.970077 -5.530244 L 63.970077 -4.249679 L 57.430293 -4.249679 C 57.549713 -3.656625 57.806771 -3.189739 58.200116 -2.849694 C 58.600208 -2.510325 59.116347 -2.340302 59.749882 -2.340302 C 60.790256 -2.340302 61.60326 -2.70666 62.190241 -3.440049 L 63.69008 -1.660213 C 63.283241 -1.093472 62.703007 -0.643453 61.950051 -0.310156 C 61.196421 0.0298888 60.386791 0.199911 59.519812 0.199911 Z M 59.150081 -8.220239 C 58.189995 -8.220239 57.616508 -7.58333 57.430293 -6.310187 L 60.749775 -6.310187 L 60.749775 -6.559823 C 60.763269 -7.086757 60.62968 -7.496969 60.349683 -7.789786 C 60.069686 -8.076529 59.670269 -8.220239 59.150081 -8.220239 Z M 71.749945 -10.639682 L 71.689897 -7.590077 L 70.609716 -7.66969 C 69.570017 -7.66969 68.903422 -7.34314 68.609931 -6.690038 L 68.609931 0.000202407 L 65.320135 0.000202407 L 65.320135 -10.570189 L 68.410222 -10.570189 L 68.520197 -9.210011 C 69.073444 -10.243638 69.843267 -10.759777 70.829666 -10.759777 C 71.183204 -10.759777 71.490189 -10.719971 71.749945 -10.639682 Z M 71.749945 -10.639682 " transform="matrix(5.789683,0,0,5.789683,47.953828,286.651172)"/>
</g>
</svg>
